<?xml version="1.0" encoding="UTF-8"?>
<svg version="1.1" xmlns="http://www.w3.org/2000/svg" width="512" height="512">
<path d="M0 0 C3.34485071 3.01852381 5.37990858 4.96742632 5.74232388 9.6220293 C5.77971051 16.39386029 4.99072386 22.61298443 3.57250977 29.22338867 C3.35850493 30.26392017 3.1445001 31.30445168 2.92401028 32.37651443 C2.21099015 35.83007001 1.48248734 39.28016537 0.75390625 42.73046875 C0.23912619 45.20789802 -0.27468399 47.68552899 -0.78759766 50.16334534 C-1.89105759 55.48319672 -3.00116324 60.80159075 -4.11740112 66.11877441 C-5.75056792 73.89851149 -7.37119441 81.68082182 -8.98898423 89.4637692 C-11.5912188 101.98130863 -14.20260436 114.49691843 -16.8203125 127.01123047 C-20.15088602 142.93374382 -23.46837449 158.85895002 -26.78125 174.78515625 C-29.82807798 189.42946485 -32.87625095 204.07348854 -35.93139648 218.71606445 C-36.18555675 219.93421813 -36.43971701 221.15237181 -36.70157909 222.40743923 C-36.95660356 223.6297276 -37.21162802 224.85201597 -37.47438049 226.11134338 C-42.40632478 249.74950574 -47.32538148 273.39029104 -52.23009992 297.03411484 C-52.84366824 299.99178167 -53.45734577 302.94942585 -54.07102495 305.90706968 C-57.86275465 324.18136832 -57.86275465 324.18136832 -61.65084839 342.4564209 C-62.06897826 344.47446891 -62.48712193 346.49251405 -62.90527999 348.51055622 C-63.17974548 349.835147 -63.4541931 351.15974147 -63.72862256 352.48433971 C-65.91439219 363.03334586 -68.11409898 373.57939807 -70.31969357 384.12427521 C-71.70644581 390.766539 -73.07005085 397.41294369 -74.41072845 404.06465721 C-75.21207682 408.02870547 -76.02697293 411.98988842 -76.84480286 415.95056534 C-77.21324155 417.7517519 -77.57542445 419.55423178 -77.93070984 421.35805893 C-78.41084576 423.79330849 -78.91267779 426.22310785 -79.41992188 428.65283203 C-79.55123505 429.34938526 -79.68254822 430.04593849 -79.81784058 430.7635994 C-81.04004449 436.42888731 -83.58072015 440.42449328 -88.46484375 443.65234375 C-93.47795977 445.3300004 -98.24494865 445.32120336 -103.078125 443.09765625 C-109.39869872 439.17039919 -115.21196453 434.48378045 -121.0703125 429.90625 C-126.09454312 426.0033694 -131.30930424 422.36831771 -136.49951172 418.69140625 C-140.0759432 416.14672434 -143.63086922 413.57224716 -147.1875 411 C-148.72525792 409.88801738 -150.26301836 408.77603824 -151.80078125 407.6640625 C-152.5685791 407.10879883 -153.33637695 406.55353516 -154.12744141 405.98144531 C-156.38930829 404.34731701 -158.65326308 402.7161287 -160.91796875 401.0859375 C-168.62281084 395.53699872 -176.30019534 389.95410747 -183.9375 384.3125 C-193.05625591 377.57885086 -202.21439552 370.9026241 -211.4375 364.3125 C-212.0857373 363.84875977 -212.73397461 363.38501953 -213.40185547 362.90722656 C-215.17993083 361.63975186 -216.96348235 360.38053786 -218.75 359.125 C-219.73613281 358.43019531 -220.72226562 357.73539062 -221.73828125 357.01953125 C-225.72825174 354.49620693 -229.1286065 353.02538178 -233.875 353 C-234.59558594 352.98324219 -235.31617188 352.96648437 -236.05859375 352.94921875 C-241.48578564 353.77800175 -245.52928525 356.97999799 -249.625 360.4375 C-251.05392578 361.63246094 -251.05392578 361.63246094 -252.51171875 362.8515625 C-253.47722656 363.66367187 -254.44273437 364.47578125 -255.4375 365.3125 C-257.26841476 366.81545118 -259.10171184 368.31550536 -260.9375 369.8125 C-263.62959947 372.01478166 -266.32142614 374.21738636 -269.01171875 376.421875 C-275.16769971 381.46444236 -281.33980431 386.48684787 -287.51855469 391.50146484 C-291.48066923 394.71820305 -295.43226434 397.94704685 -299.375 401.1875 C-302.71306053 403.9163519 -306.05912248 406.63365811 -309.4375 409.3125 C-310.13875 409.869375 -310.84 410.42625 -311.5625 411 C-315.50243634 413.75795544 -319.79602545 413.90121644 -324.4375 413.3125 C-328.76583562 411.94244215 -331.00298572 410.04402405 -333.32763672 406.13037109 C-336.41459426 399.6036556 -338.33476418 392.61375498 -340.4453125 385.7265625 C-340.92836746 384.16856849 -341.41204552 382.61076756 -341.89630127 381.05314636 C-343.19165842 376.88063207 -344.47860594 372.70556938 -345.76378632 368.52991104 C-347.10049872 364.19130001 -348.44433073 359.85489579 -349.78759766 355.51831055 C-351.42107203 350.24314762 -353.05366426 344.96771739 -354.68258667 339.69114685 C-357.86953143 329.36835495 -361.07410032 319.05134229 -364.30366898 308.74180603 C-365.75436883 304.10944399 -367.2014524 299.47594995 -368.64935303 294.8427124 C-369.4192269 292.38200046 -370.19056785 289.92174699 -370.96343994 287.4619751 C-372.02984389 284.06595331 -373.08987831 280.66800503 -374.1484375 277.26953125 C-374.45565735 276.29686813 -374.7628772 275.32420502 -375.07940674 274.32206726 C-376.92410555 268.37303477 -378.34244967 262.44419004 -379.4375 256.3125 C-380.186259 256.1733316 -380.93501801 256.03416321 -381.70646667 255.89077759 C-385.43028897 255.10228374 -388.9269139 253.77878756 -392.48828125 252.4609375 C-393.28219269 252.17033447 -394.07610413 251.87973145 -394.89407349 251.58032227 C-397.51414658 250.61989558 -400.13212563 249.65390231 -402.75 248.6875 C-404.59312865 248.00978779 -406.43630981 247.33221839 -408.27954102 246.65478516 C-424.93380786 240.52620497 -441.56139974 234.32606211 -458.16268921 228.05543518 C-463.06513224 226.20418999 -467.97180076 224.36475945 -472.88206482 222.53436279 C-476.04938858 221.35180042 -479.21376706 220.16150512 -482.37747192 218.96929932 C-483.85745768 218.41333253 -485.33861563 217.8604746 -486.8210144 217.31097412 C-488.85667908 216.55574168 -490.8876778 215.78907184 -492.91796875 215.01953125 C-494.06160889 214.5913208 -495.20524902 214.16311035 -496.38354492 213.72192383 C-500.21040065 211.95580039 -503.35026919 209.93177994 -505.72265625 206.3984375 C-507.19195459 202.11097677 -507.05104528 197.76231789 -506.4375 193.3125 C-501.96128582 185.61900688 -493.16994994 183.06322479 -485.19140625 180.08984375 C-484.40492203 179.79249832 -483.61843781 179.49515289 -482.80812073 179.188797 C-481.10331337 178.54455989 -479.39781922 177.90213782 -477.69171143 177.26135254 C-472.97700996 175.4899051 -468.26805229 173.70329798 -463.55859375 171.91796875 C-462.5677478 171.54266022 -461.57690186 171.16735168 -460.55603027 170.78067017 C-449.5350208 166.60094112 -438.54831569 162.33367773 -427.5625 158.0625 C-410.69949531 151.51023952 -393.82515673 144.98846336 -376.9375 138.5 C-358.70288292 131.49324388 -340.47343176 124.47329985 -322.25 117.4375 C-321.06623779 116.98047699 -319.88247559 116.52345398 -318.6628418 116.05258179 C-312.65617892 113.73348077 -306.6496024 111.4141562 -300.64306641 109.09472656 C-289.92752624 104.95703376 -279.21121767 100.82133185 -268.4949646 96.68548584 C-262.55911137 94.39457269 -256.62330823 92.10352976 -250.6875 89.8125 C-248.31250024 88.89583271 -245.93750024 87.97916605 -243.5625 87.0625 C-242.386875 86.60875 -241.21125 86.155 -240 85.6875 C-172.31249987 59.56249995 -172.31249987 59.56249995 -168.75007629 58.18753052 C-166.37482102 57.27076461 -163.99956671 56.35399622 -161.62431335 55.43722534 C-155.69072688 53.14705668 -149.7571238 50.85693105 -143.82348633 48.56689453 C-129.52740018 43.04938647 -129.52740018 43.04938647 -115.23193359 37.53027344 C-114.04078445 37.0703299 -112.84963531 36.61038635 -111.62239075 36.13650513 C-109.21535496 35.2069905 -106.80836236 34.27736404 -104.40141296 33.34762573 C-98.45698263 31.05175306 -92.5116404 28.75830304 -86.56420898 26.47021484 C-75.80666186 22.32959027 -65.05672919 18.17283248 -54.33543396 13.9390564 C-49.53842003 12.04642455 -44.73660303 10.16616745 -39.93423462 8.28717041 C-37.6707236 7.3975999 -35.40956205 6.50202435 -33.15097046 5.60003662 C-30.03483052 4.35601817 -26.91117976 3.13298931 -23.78515625 1.9140625 C-22.880466 1.54649841 -21.97577576 1.17893433 -21.04367065 0.80023193 C-13.96809124 -1.92152139 -7.03632743 -3.4541971 0 0 Z M-111.50854492 91.24609375 C-112.70120972 91.99052734 -112.70120972 91.99052734 -113.91796875 92.75 C-114.82224609 93.30751953 -115.72652344 93.86503906 -116.65820312 94.43945312 C-117.63724609 95.05755859 -118.61628906 95.67566406 -119.625 96.3125 C-120.64658203 96.94607422 -121.66816406 97.57964844 -122.72070312 98.23242188 C-125.96623964 100.2487387 -129.20242825 102.27944362 -132.4375 104.3125 C-134.45408281 105.5734674 -136.47100172 106.83389749 -138.48828125 108.09375 C-141.47521202 109.96009175 -144.46143522 111.82751003 -147.4453125 113.69873047 C-155.26016226 118.59568156 -163.12571548 123.4046825 -171.01049805 128.18798828 C-178.13932919 132.5148799 -185.23786681 136.88838551 -192.32421875 141.28442383 C-199.24876787 145.57937284 -206.18450363 149.85587177 -213.125 154.125 C-214.21296875 154.79426514 -215.3009375 155.46353027 -216.421875 156.15307617 C-220.87771307 158.89374422 -225.33388393 161.63387095 -229.79003906 164.37402344 C-240.84730993 171.17377663 -251.90357761 177.97490495 -262.9375 184.8125 C-276.22828114 193.04864451 -289.54916316 201.2359308 -302.87060547 209.42236328 C-310.3961923 214.04708262 -317.91855475 218.67699027 -325.4375 223.3125 C-326.72793213 224.10672363 -326.72793213 224.10672363 -328.04443359 224.91699219 C-330.28182077 226.29531355 -332.51645388 227.67796573 -334.75 229.0625 C-335.68223389 229.63556885 -335.68223389 229.63556885 -336.63330078 230.22021484 C-341.88596016 233.48922809 -346.37511563 236.33375713 -349.25 241.9375 C-349.66894531 242.71351563 -350.08789062 243.48953125 -350.51953125 244.2890625 C-353.1354633 252.90494083 -350.74108299 261.18469544 -348.2890625 269.5625 C-347.79648705 271.30333107 -347.79648705 271.30333107 -347.29396057 273.07933044 C-346.22977553 276.82756225 -345.1468513 280.57005736 -344.0625 284.3125 C-343.32510454 286.8835895 -342.59102116 289.45562194 -341.85668945 292.02758789 C-340.40257738 297.11352925 -338.9386471 302.19657012 -337.46826172 307.27783203 C-335.95493507 312.5098051 -334.45962633 317.74645521 -332.98028564 322.98812866 C-332.07484867 326.19223129 -331.1600285 329.3935828 -330.24163818 332.59399414 C-329.83281378 334.02340257 -329.42721694 335.45373833 -329.02496338 336.88500977 C-328.47921245 338.82093308 -327.9178423 340.75243369 -327.35546875 342.68359375 C-326.90337036 344.2603186 -326.90337036 344.2603186 -326.44213867 345.86889648 C-325.57538772 348.62402769 -325.57538772 348.62402769 -322.4375 350.3125 C-319.11509676 349.9883631 -317.82973697 349.70473697 -315.4375 347.3125 C-314.85133874 345.04834287 -314.85133874 345.04834287 -314.5078125 342.37890625 C-314.27771484 340.83601929 -314.27771484 340.83601929 -314.04296875 339.26196289 C-313.88441406 338.14426514 -313.72585938 337.02656738 -313.5625 335.875 C-313.39105469 334.72443115 -313.21960938 333.5738623 -313.04296875 332.38842773 C-312.1328344 326.25374023 -311.27012721 320.11333463 -310.4296875 313.96875 C-310.18001221 312.18682251 -310.18001221 312.18682251 -309.92529297 310.36889648 C-309.60875895 308.10167007 -309.30247594 305.83297989 -309.00830078 303.56274414 C-306.17410168 283.32134737 -295.4337193 272.09903568 -280.53027344 259.15795898 C-277.02334812 256.06546616 -273.64140401 252.84301129 -270.25 249.625 C-265.12898161 244.78507432 -259.99844116 239.95785157 -254.8125 235.1875 C-250.21271617 230.95495293 -245.63061833 226.70421671 -241.0625 222.4375 C-240.43730469 221.85355469 -239.81210937 221.26960937 -239.16796875 220.66796875 C-237.25755627 218.88308645 -235.34746569 217.09786039 -233.4375 215.3125 C-225.76154486 208.13732073 -218.07909878 200.97018087 -210.35107422 193.85107422 C-206.19741994 190.02170646 -202.06479051 186.17025317 -197.9375 182.3125 C-192.75975349 177.47289204 -187.56429757 172.65344161 -182.3515625 167.8515625 C-177.55493694 163.42930772 -172.78729209 158.97639662 -168.02124023 154.52124023 C-164.02796914 150.79066409 -160.0204724 147.07622894 -156 143.375 C-151.11996351 138.88150106 -146.27291966 134.35395921 -141.4375 129.8125 C-137.12252146 125.75984265 -132.8035355 121.71235571 -128.44970703 117.70141602 C-127.40845238 116.74168596 -126.36902944 115.77996439 -125.33154297 114.81616211 C-122.34441011 112.0451972 -119.32143208 109.32357476 -116.26171875 106.6328125 C-114.86193611 105.38025645 -113.46219581 104.12765308 -112.0625 102.875 C-111.38888428 102.29548584 -110.71526855 101.71597168 -110.02124023 101.11889648 C-108.32017356 99.5824131 -106.78612828 98.16642064 -105.4375 96.3125 C-105.34021028 93.46691582 -105.34021028 93.46691582 -106.4375 91.3125 C-109.31621061 89.97617418 -109.31621061 89.97617418 -111.50854492 91.24609375 Z " fill="#000000" transform="translate(506.4375,34.6875)"/>
</svg>
