<svg width="500" height="500" viewBox="0 0 500 500" fill="none" xmlns="http://www.w3.org/2000/svg">
<g clip-path="url(#clip0_8_36)">
<rect width="500" height="500" fill="white"/>
<path d="M12.7579 257.215C12.6023 255.577 13.4652 254.011 14.9327 253.268L119.243 200.441C121.904 199.093 125.05 201.027 125.05 204.009L125.05 230.785C125.05 232.328 124.163 233.733 122.771 234.396L20.6091 283.065C18.1014 284.26 15.1694 282.597 14.9067 279.832L12.7579 257.215Z" fill="black"/>
<path d="M12.5 256.882C12.5 253.931 15.5875 251.996 18.2439 253.283L122.744 303.907C124.124 304.575 125 305.974 125 307.507L125 333.606C125 336.56 121.907 338.495 119.25 337.203L65.9898 311.292L14.5787 283.138C13.297 282.436 12.5 281.091 12.5 279.63L12.5 256.882Z" fill="black"/>
<path d="M485.711 280.785C485.867 282.423 485.004 283.989 483.536 284.732L379.226 337.559C376.565 338.907 373.419 336.973 373.419 333.991L373.419 307.215C373.419 305.672 374.306 304.267 375.699 303.604L477.86 254.935C480.368 253.74 483.3 255.403 483.562 258.168L485.711 280.785Z" fill="black"/>
<path d="M485.969 281.118C485.969 284.069 482.882 286.004 480.225 284.717L375.725 234.093C374.346 233.425 373.469 232.026 373.469 230.493L373.469 204.394C373.469 201.44 376.562 199.505 379.219 200.797L432.479 226.708L483.891 254.862C485.172 255.564 485.969 256.909 485.969 258.37L485.969 281.118Z" fill="black"/>
<g filter="url(#filter0_d_8_36)">
<path d="M144 161C144 147.745 154.745 137 168 137H181.033C186.556 137 191.033 141.477 191.033 147V339.885C191.033 345.408 186.556 349.885 181.033 349.885H168C154.745 349.885 144 339.14 144 325.885V161Z" fill="black"/>
<path d="M247.967 147C247.967 141.477 252.444 137 257.967 137H271C284.255 137 295 147.745 295 161V325.885C295 339.14 284.255 349.885 271 349.885H257.967C252.444 349.885 247.967 345.408 247.967 339.885V147Z" fill="black"/>
<path d="M175.645 222.346H282.088V265.498H175.645V222.346Z" fill="black"/>
</g>
<path d="M351.018 142.476C351.704 139.234 354.889 137.162 358.131 137.849L370.218 140.407C373.46 141.094 375.531 144.278 374.845 147.52L327.91 369.236C327.224 372.478 324.039 374.549 320.797 373.863L308.71 371.304C305.468 370.618 303.397 367.434 304.083 364.192L351.018 142.476Z" fill="black"/>
</g>
<defs>
<filter id="filter0_d_8_36" x="124" y="116" width="205" height="266.885" filterUnits="userSpaceOnUse" color-interpolation-filters="sRGB">
<feFlood flood-opacity="0" result="BackgroundImageFix"/>
<feColorMatrix in="SourceAlpha" type="matrix" values="0 0 0 0 0 0 0 0 0 0 0 0 0 0 0 0 0 0 127 0" result="hardAlpha"/>
<feOffset dx="7" dy="6"/>
<feGaussianBlur stdDeviation="13.5"/>
<feComposite in2="hardAlpha" operator="out"/>
<feColorMatrix type="matrix" values="0 0 0 0 0.738333 0 0 0 0 0.738333 0 0 0 0 0.738333 0 0 0 0.25 0"/>
<feBlend mode="normal" in2="BackgroundImageFix" result="effect1_dropShadow_8_36"/>
<feBlend mode="normal" in="SourceGraphic" in2="effect1_dropShadow_8_36" result="shape"/>
</filter>
<clipPath id="clip0_8_36">
<rect width="500" height="500" fill="white"/>
</clipPath>
</defs>
</svg>
