<?xml version="1.0" encoding="UTF-8"?>
<svg version="1.1" xmlns="http://www.w3.org/2000/svg" width="512" height="512">
<path d="M0 0 C1.28229744 -0.02409439 1.28229744 -0.02409439 2.59049988 -0.04867554 C6.50465942 -0.09335943 10.41865242 -0.13420643 14.33300781 -0.15722656 C16.39204229 -0.17375718 18.45102007 -0.20100879 20.50976562 -0.23925781 C23.48898891 -0.29428241 26.46686883 -0.3159414 29.4465332 -0.33056641 C30.35827805 -0.35323578 31.27002289 -0.37590515 32.20939636 -0.39926147 C38.51323766 -0.37862554 42.95431155 0.97710787 47.74731445 5.19287109 C52.14250504 10.76067472 52.19155887 16.37350909 51.74731445 23.19287109 C51.11019687 28.38591216 50.24916411 33.53485677 49.3757782 38.69192505 C49.11736912 40.25391547 48.85966642 41.81602289 48.60260516 43.3782357 C47.89737445 47.65122508 47.18209381 51.92247881 46.46508324 56.19350505 C45.69231897 60.80741837 44.92890752 65.42288023 44.16427612 70.03814697 C42.66618782 79.07110035 41.15935188 88.1025733 39.64935573 97.13354291 C38.42225803 104.47353063 37.1983327 111.81404078 35.97666359 119.15493393 C35.802682 120.2003558 35.62870041 121.24577766 35.44944665 122.32287898 C35.0960056 124.44672258 34.74257182 126.5705674 34.38914523 128.69441341 C31.07620491 148.60055779 27.75333305 168.50503446 24.42705456 188.40895377 C21.57367129 205.48456756 18.72879866 222.56158142 15.89013672 239.63964844 C12.59261676 259.47828966 9.28983464 279.31604296 5.97865611 299.15240943 C5.62556815 301.26775175 5.27248696 303.3830952 4.91941261 305.49843979 C4.7456958 306.5391979 4.57197899 307.579956 4.39299804 308.65225223 C3.16962146 315.9838801 1.95000768 323.31612818 0.73184776 330.64862442 C-0.75273991 339.58420298 -2.24310668 348.51879461 -3.74087826 357.45217313 C-4.50479748 362.00941798 -5.2661235 366.56705544 -6.02041817 371.12590408 C-6.71120114 375.30043577 -7.40948091 379.47364178 -8.11371746 383.64592431 C-8.3669283 385.15403488 -8.61741823 386.66260538 -8.86488203 388.17166962 C-12.17137165 408.30974871 -12.17137165 408.30974871 -17.75268555 412.63037109 C-18.34049805 413.10345703 -18.92831055 413.57654297 -19.53393555 414.06396484 C-22.45184608 415.98050153 -25.01864236 416.32428518 -28.41357422 416.36987305 C-29.24841843 416.38270828 -30.08326263 416.39554352 -30.94340515 416.4087677 C-31.84339737 416.41615463 -32.74338959 416.42354156 -33.6706543 416.43115234 C-34.601866 416.43922409 -35.5330777 416.44729584 -36.49250793 416.45561218 C-38.46536401 416.46944473 -40.43824393 416.4801706 -42.41113281 416.48803711 C-45.41152069 416.50520706 -48.41079414 416.54909551 -51.41088867 416.59326172 C-53.33080247 416.60339295 -55.25072561 416.61190771 -57.1706543 416.61865234 C-58.06052536 416.63616043 -58.95039642 416.65366852 -59.86723328 416.67170715 C-65.75843124 416.65144499 -70.38277024 415.64828704 -75.25268555 412.19287109 C-80.24469684 405.9208569 -80.70380557 400.91188569 -80.25268555 393.19287109 C-79.6194763 387.99947043 -78.75451599 382.85077199 -77.88114929 377.69381714 C-77.62274021 376.13182671 -77.36503752 374.56971929 -77.10797626 373.00750649 C-76.40274554 368.73451711 -75.6874649 364.46326338 -74.97045434 360.19223714 C-74.19769006 355.57832382 -73.43427861 350.96286196 -72.66964722 346.34759521 C-71.17155891 337.31464184 -69.66472298 328.28316889 -68.15472683 319.25219928 C-66.92762913 311.91221156 -65.7037038 304.57170141 -64.48203468 297.23080826 C-64.2210623 295.66267546 -64.2210623 295.66267546 -63.95481775 294.06286321 C-63.60137669 291.9390196 -63.24794291 289.81517479 -62.89451633 287.69132878 C-59.581576 267.7851844 -56.25870415 247.88070773 -52.93242566 227.97678842 C-50.07904239 210.90117463 -47.23416975 193.82416077 -44.39550781 176.74609375 C-41.09798785 156.90745252 -37.79520574 137.06969923 -34.48402721 117.23333275 C-34.13093924 115.11799044 -33.77785805 113.00264699 -33.42478371 110.8873024 C-33.2510669 109.84654429 -33.07735009 108.80578618 -32.89836913 107.73348995 C-31.67499255 100.40186208 -30.45537878 93.06961401 -29.23721886 85.73711777 C-27.75263118 76.80153921 -26.26226441 67.86694758 -24.76449283 58.93356906 C-24.00057361 54.37632421 -23.23924759 49.81868675 -22.48495293 45.2598381 C-21.79416995 41.08530641 -21.09589018 36.9121004 -20.39165363 32.73981787 C-20.13844279 31.23170731 -19.88795286 29.7231368 -19.64048906 28.21407257 C-16.33399944 8.07599347 -16.33399944 8.07599347 -10.75268555 3.75537109 C-10.16487305 3.28228516 -9.57706055 2.80919922 -8.97143555 2.32177734 C-6.02624252 0.38732101 -3.42619359 0.0586821 0 0 Z " fill="#496E88" transform="translate(270.252685546875,47.80712890625)"/>
<path d="M0 0 C0.68191406 0.07347656 1.36382812 0.14695313 2.06640625 0.22265625 C8.32855065 2.11058446 12.93515358 5.974959 17.44921875 10.515625 C18.25248344 11.31102692 18.25248344 11.31102692 19.07197571 12.12249756 C20.19407515 13.23821789 21.31238086 14.35776567 22.42700195 15.48095703 C24.11905692 17.18152702 25.8289447 18.8625801 27.54101562 20.54296875 C39.18279921 32.1068316 39.18279921 32.1068316 40.96875 40.40625 C40.9584375 41.0765625 40.948125 41.746875 40.9375 42.4375 C40.95296875 43.44296875 40.95296875 43.44296875 40.96875 44.46875 C39.40934945 51.71537607 35.10165104 56.85096207 29.92480469 61.90429688 C29.28048492 62.54920074 28.63616516 63.19410461 27.97232056 63.85855103 C25.86068893 65.96741738 23.73529218 68.06179403 21.609375 70.15625 C20.13448213 71.62367499 18.66047553 73.09199124 17.18731689 74.56115723 C13.32291958 78.41034153 9.44665879 82.24735721 5.56774902 86.08190918 C1.60559665 90.00301561 -2.34514213 93.93558532 -6.296875 97.8671875 C-14.0409952 105.56851327 -21.79770494 113.25702384 -29.5625 120.9375 C-27.91016797 125.24537003 -24.64469879 128.09187889 -21.41625977 131.24731445 C-20.7868045 131.8706366 -20.15734924 132.49395874 -19.50881958 133.13616943 C-18.14301843 134.48767694 -16.77498873 135.8369352 -15.40500069 137.18419838 C-13.23525858 139.31912974 -11.07270707 141.46110286 -8.91209412 143.60527039 C-2.76841316 149.70007502 3.38626275 155.78368444 9.55004883 161.8581543 C13.32153826 165.57598296 17.0831516 169.30357162 20.83891487 173.03728294 C22.2700371 174.45601205 23.7049404 175.87093782 25.14370537 177.28191566 C27.1590236 179.2586613 29.16158766 181.24755395 31.16186523 183.23950195 C31.75573532 183.81584885 32.34960541 184.39219574 32.96147156 184.98600769 C37.55166432 189.59804245 40.86219819 194.60284094 40.875 201.375 C40.89433594 202.05433594 40.91367188 202.73367188 40.93359375 203.43359375 C39.08935967 212.7418933 32.33112612 218.63056288 25.83911133 225.00244141 C24.12729399 226.68524489 22.43498643 228.3859971 20.74414062 230.08984375 C19.64694259 231.18080423 18.54867023 232.27068553 17.44921875 233.359375 C16.95105148 233.86047791 16.45288422 234.36158081 15.93962097 234.87786865 C11.50185774 239.20006681 6.34868674 243.190926 0 243.875 C-0.67933594 243.96652344 -1.35867187 244.05804688 -2.05859375 244.15234375 C-11.44667454 243.3468142 -16.66325006 237.54415486 -22.95410156 231.16113281 C-23.97236163 230.14637833 -24.99169928 229.13270418 -26.01202393 228.12002563 C-28.76710301 225.37914112 -31.50635498 222.62293305 -34.24255085 219.86321354 C-37.11532379 216.97026339 -40.00115124 214.09038728 -42.88519287 211.2086792 C-47.72541807 206.36840051 -52.55571591 201.51839013 -57.37988281 196.66210938 C-62.9484075 191.05669529 -68.53085618 185.46546135 -74.12133813 179.88195157 C-79.51058567 174.49902075 -84.89123733 169.1075814 -90.2675705 163.71175385 C-92.550438 161.42073575 -94.83598977 159.13244671 -97.12372589 156.84629059 C-99.81973578 154.15116304 -102.50802697 151.44855822 -105.1906662 148.74012375 C-106.17328737 147.7503727 -107.15842087 146.76310823 -108.14630127 145.77860641 C-115.57730588 138.36816605 -121.09657758 132.55462521 -121.64453125 121.69921875 C-121.236693 107.96866443 -108.78973124 99.01646261 -99.76342773 89.94555664 C-98.81926162 88.99346077 -97.87526659 88.0411952 -96.931427 87.08877563 C-93.8732776 84.00478807 -90.81001997 80.92590309 -87.74609375 77.84765625 C-86.68354544 76.77973681 -85.62100033 75.71181419 -84.55845833 74.64388847 C-80.13985617 70.20373448 -75.71984833 65.76498773 -71.29612637 61.32993412 C-64.98828449 55.00581443 -58.6891358 48.67330684 -52.40159458 42.32900149 C-47.95829847 37.84697573 -43.5054306 33.37460344 -39.04537159 28.90925878 C-36.38973433 26.24997901 -33.73839474 23.58673018 -31.09725761 20.91304207 C-28.1559639 17.93600348 -25.19510621 14.9791888 -22.23217773 12.02368164 C-21.36805771 11.14315628 -20.50393768 10.26263092 -19.6136322 9.35542297 C-14.08508773 3.88336479 -8.35685317 -1.12587585 0 0 Z " fill="#5D8CA7" transform="translate(133.5625,134.0625)"/>
<path d="M0 0 C0.72960937 0.05542969 1.45921875 0.11085937 2.2109375 0.16796875 C9.80550913 2.19564564 15.26434036 9.16288997 20.60595703 14.51879883 C21.6048611 15.51335067 22.60418064 16.50748537 23.60388184 17.50123596 C26.30683219 20.19084101 29.00338896 22.88676936 31.69840479 25.58432221 C33.95303919 27.84002921 36.21064964 30.0927461 38.46821105 32.34552306 C43.7957754 37.66200799 49.11801328 42.98378409 54.43701172 48.30883789 C59.91557034 53.79343769 65.40324525 59.2687929 70.89545929 64.7397154 C75.61950461 69.44612249 80.33769828 74.15834048 85.05130661 78.87520045 C87.86269421 81.68839727 90.67623892 84.49934541 93.49548721 87.30466652 C96.14685953 89.94342873 98.79082403 92.58939922 101.42938232 95.24097252 C102.85489602 96.6699646 104.28778524 98.09158736 105.72091675 99.51293945 C112.61738792 106.46598368 117.19863568 111.97905287 117.70703125 122.05078125 C117.299193 135.78133557 104.85223124 144.73353739 95.82592773 153.80444336 C94.88176162 154.75653923 93.93776659 155.7088048 92.993927 156.66122437 C89.9357776 159.74521193 86.87251997 162.82409691 83.80859375 165.90234375 C82.74604544 166.97026319 81.68350033 168.03818581 80.62095833 169.10611153 C76.20235617 173.54626552 71.78234833 177.98501227 67.35862637 182.42006588 C61.05078449 188.74418557 54.7516358 195.07669316 48.46409458 201.42099851 C44.02079847 205.90302427 39.5679306 210.37539656 35.10787159 214.84074122 C32.45223433 217.50002099 29.80089474 220.16326982 27.15975761 222.83695793 C24.2184639 225.81399652 21.25760621 228.7708112 18.29467773 231.72631836 C17.43055771 232.60684372 16.56643768 233.48736908 15.6761322 234.39457703 C10.34163789 239.6745677 5.86078104 243.36325202 -1.87890625 244.02734375 C-2.89791016 243.89005859 -2.89791016 243.89005859 -3.9375 243.75 C-4.61941406 243.67652344 -5.30132812 243.60304688 -6.00390625 243.52734375 C-12.26605065 241.63941554 -16.87265358 237.775041 -21.38671875 233.234375 C-21.92222855 232.70410706 -22.45773834 232.17383911 -23.00947571 231.62750244 C-24.13157515 230.51178211 -25.24988086 229.39223433 -26.36450195 228.26904297 C-28.05655692 226.56847298 -29.7664447 224.8874199 -31.47851562 223.20703125 C-43.12029921 211.6431684 -43.12029921 211.6431684 -44.90625 203.34375 C-44.8959375 202.6734375 -44.885625 202.003125 -44.875 201.3125 C-44.8853125 200.6421875 -44.895625 199.971875 -44.90625 199.28125 C-43.34684945 192.03462393 -39.03915104 186.89903793 -33.86230469 181.84570312 C-32.89582504 180.87834732 -32.89582504 180.87834732 -31.90982056 179.89144897 C-29.79818893 177.78258262 -27.67279218 175.68820597 -25.546875 173.59375 C-24.07198213 172.12632501 -22.59797553 170.65800876 -21.12481689 169.18884277 C-17.26041958 165.33965847 -13.38415879 161.50264279 -9.50524902 157.66809082 C-5.54309665 153.74698439 -1.59235787 149.81441468 2.359375 145.8828125 C10.1034952 138.18148673 17.86020494 130.49297616 25.625 122.8125 C23.97266797 118.50462997 20.70719879 115.65812111 17.47875977 112.50268555 C16.53457687 111.56770233 16.53457687 111.56770233 15.57131958 110.61383057 C14.20551843 109.26232306 12.83748873 107.9130648 11.46750069 106.56580162 C9.29775858 104.43087026 7.13520707 102.28889714 4.97459412 100.14472961 C-1.16908684 94.04992498 -7.32376275 87.96631556 -13.48754883 81.8918457 C-17.25903826 78.17401704 -21.0206516 74.44642838 -24.77641487 70.71271706 C-26.2075371 69.29398795 -27.6424404 67.87906218 -29.08120537 66.46808434 C-31.0965236 64.4913387 -33.09908766 62.50244605 -35.09936523 60.51049805 C-35.69323532 59.93415115 -36.28710541 59.35780426 -36.89897156 58.76399231 C-41.48916432 54.15195755 -44.79969819 49.14715906 -44.8125 42.375 C-44.83183594 41.69566406 -44.85117187 41.01632813 -44.87109375 40.31640625 C-43.02685967 31.0081067 -36.26862612 25.11943712 -29.77661133 18.74755859 C-28.06479399 17.06475511 -26.37248643 15.3640029 -24.68164062 13.66015625 C-23.58444259 12.56919577 -22.48617023 11.47931447 -21.38671875 10.390625 C-20.88855148 9.88952209 -20.39038422 9.38841919 -19.87712097 8.87213135 C-14.27526962 3.41615943 -8.07783042 -0.75109651 0 0 Z " fill="#35506A" transform="translate(382.375,134.1875)"/>
</svg>
